<svg width="1360" height="80" fill="none" xmlns="http://www.w3.org/2000/svg"><rect width="1360" height="80" rx="12" fill="#286897"/><mask id="a" style="mask-type:alpha" maskUnits="userSpaceOnUse" x="0" y="0" width="1360" height="80"><rect width="1360" height="80" rx="12" fill="#286897"/></mask><g mask="url(#a)" fill-rule="evenodd" clip-rule="evenodd"><path d="M1250.25 40c0-.552-.45-1-1-1s-1 .448-1 1v3.836l-2.71-2.712a1 1 0 1 0-1.42 1.414l2.72 2.712H1243c-.55 0-1 .448-1 1s.45 1 1 1h3.84l-2.72 2.712a1 1 0 1 0 1.42 1.414l2.71-2.712V52.5c0 .552.45 1 1 1s1-.448 1-1v-3.836l2.71 2.712a1 1 0 1 0 1.42-1.414l-2.72-2.712h3.84c.55 0 1-.448 1-1s-.45-1-1-1h-3.84l2.72-2.712a1 1 0 1 0-1.42-1.414l-2.71 2.712V40Z" fill="url(#b)"/><path d="M1234.25 64c0-.552-.45-1-1-1s-1 .448-1 1v3.836l-2.71-2.712a1 1 0 1 0-1.42 1.414l2.72 2.712H1227c-.55 0-1 .448-1 1s.45 1 1 1h3.84l-2.72 2.712a1 1 0 1 0 1.42 1.414l2.71-2.712V76.5c0 .552.45 1 1 1s1-.448 1-1v-3.836l2.71 2.712a1 1 0 1 0 1.42-1.414l-2.72-2.712h3.84c.55 0 1-.448 1-1s-.45-1-1-1h-3.84l2.72-2.712a1 1 0 1 0-1.42-1.414l-2.71 2.712V64Z" fill="url(#c)"/><path d="M1264.25 67c0-.552-.45-1-1-1s-1 .448-1 1v3.836l-2.71-2.712a1 1 0 1 0-1.42 1.414l2.72 2.712H1257c-.55 0-1 .448-1 1s.45 1 1 1h3.84l-2.72 2.712a1 1 0 1 0 1.42 1.414l2.71-2.712V79.5c0 .552.45 1 1 1s1-.448 1-1v-3.836l2.71 2.712a1 1 0 1 0 1.42-1.414l-2.72-2.712h3.84c.55 0 1-.448 1-1s-.45-1-1-1h-3.84l2.72-2.712a1 1 0 1 0-1.42-1.414l-2.71 2.712V67Z" fill="url(#d)"/><path d="M1282.25 49c0-.552-.45-1-1-1s-1 .448-1 1v3.836l-2.71-2.712a1 1 0 1 0-1.42 1.414l2.72 2.712H1275c-.55 0-1 .448-1 1s.45 1 1 1h3.84l-2.72 2.712a1 1 0 1 0 1.42 1.414l2.71-2.712V61.5c0 .552.45 1 1 1s1-.448 1-1v-3.836l2.71 2.712a1 1 0 1 0 1.42-1.414l-2.72-2.712h3.84c.55 0 1-.448 1-1s-.45-1-1-1h-3.84l2.72-2.712a1 1 0 1 0-1.42-1.414l-2.71 2.712V49Z" fill="url(#e)"/><path d="M1316.25 40c0-.552-.45-1-1-1s-1 .448-1 1v3.836l-2.71-2.712a1 1 0 1 0-1.42 1.414l2.72 2.712H1309c-.55 0-1 .448-1 1s.45 1 1 1h3.84l-2.72 2.712a1 1 0 1 0 1.42 1.414l2.71-2.712V52.5c0 .552.45 1 1 1s1-.448 1-1v-3.836l2.71 2.712a1 1 0 1 0 1.42-1.414l-2.72-2.712h3.84c.55 0 1-.448 1-1s-.45-1-1-1h-3.84l2.72-2.712a1 1 0 1 0-1.42-1.414l-2.71 2.712V40Z" fill="url(#f)"/><path d="M1311.25 64c0-.552-.45-1-1-1s-1 .448-1 1v3.836l-2.71-2.712a1 1 0 1 0-1.42 1.414l2.72 2.712H1304c-.55 0-1 .448-1 1s.45 1 1 1h3.84l-2.72 2.712a1 1 0 1 0 1.42 1.414l2.71-2.712V76.5c0 .552.45 1 1 1s1-.448 1-1v-3.836l2.71 2.712a1 1 0 1 0 1.42-1.414l-2.72-2.712h3.84c.55 0 1-.448 1-1s-.45-1-1-1h-3.84l2.72-2.712a1 1 0 1 0-1.42-1.414l-2.71 2.712V64Z" fill="url(#g)"/><path d="M1343.25 52c0-.552-.45-1-1-1s-1 .448-1 1v3.836l-2.71-2.712a1 1 0 1 0-1.42 1.414l2.72 2.712H1336c-.55 0-1 .448-1 1s.45 1 1 1h3.84l-2.72 2.712a1 1 0 1 0 1.42 1.414l2.71-2.712V64.5c0 .552.45 1 1 1s1-.448 1-1v-3.836l2.71 2.712a1 1 0 1 0 1.42-1.414l-2.72-2.712h3.84c.55 0 1-.448 1-1s-.45-1-1-1h-3.84l2.72-2.712a1 1 0 1 0-1.42-1.414l-2.71 2.712V52Z" fill="url(#h)"/><path d="M1238.22-15.99c3.39-23.75 23.82-42.01 48.51-42.01 16.08 0 30.36 7.752 39.29 19.724a40.078 40.078 0 0 1 12.25-1.906c22.14 0 40.09 17.95 40.09 40.091 0 22.142-17.95 40.091-40.09 40.091H1235.18v-.258C1221.52 37.88 1211 26.169 1211 12c0-15.204 12.12-27.577 27.22-27.99Z" fill="#1F4F72"/></g><defs><linearGradient id="b" x1="1249.25" y1="34" x2="1249.25" y2="53.5" gradientUnits="userSpaceOnUse"><stop stop-color="#fff" stop-opacity="0"/><stop offset="1" stop-color="#fff"/></linearGradient><linearGradient id="c" x1="1233.25" y1="58" x2="1233.25" y2="77.5" gradientUnits="userSpaceOnUse"><stop stop-color="#fff" stop-opacity="0"/><stop offset="1" stop-color="#fff"/></linearGradient><linearGradient id="d" x1="1263.25" y1="61" x2="1263.25" y2="80.5" gradientUnits="userSpaceOnUse"><stop stop-color="#fff" stop-opacity="0"/><stop offset="1" stop-color="#fff"/></linearGradient><linearGradient id="e" x1="1281.25" y1="43" x2="1281.25" y2="62.5" gradientUnits="userSpaceOnUse"><stop stop-color="#fff" stop-opacity="0"/><stop offset="1" stop-color="#fff"/></linearGradient><linearGradient id="f" x1="1315.25" y1="34" x2="1315.25" y2="53.5" gradientUnits="userSpaceOnUse"><stop stop-color="#fff" stop-opacity="0"/><stop offset="1" stop-color="#fff"/></linearGradient><linearGradient id="g" x1="1310.25" y1="58" x2="1310.25" y2="77.5" gradientUnits="userSpaceOnUse"><stop stop-color="#fff" stop-opacity="0"/><stop offset="1" stop-color="#fff"/></linearGradient><linearGradient id="h" x1="1342.25" y1="46" x2="1342.25" y2="65.5" gradientUnits="userSpaceOnUse"><stop stop-color="#fff" stop-opacity="0"/><stop offset="1" stop-color="#fff"/></linearGradient></defs></svg>